<svg width="228" height="229" viewBox="0 0 228 229" fill="none" xmlns="http://www.w3.org/2000/svg">
    <path
        d="M113.88 227.411C176.531 227.411 227.32 176.622 227.32 113.971C227.32 51.3194 176.531 0.530609 113.88 0.530609C51.2288 0.530609 0.440002 51.3194 0.440002 113.971C0.440002 176.622 51.2288 227.411 113.88 227.411Z"
        fill="#7431DD" />
    <path
        d="M110.749 128.023C130.748 128.023 146.96 111.811 146.96 91.8121C146.96 71.8132 130.748 55.6009 110.749 55.6009C90.7501 55.6009 74.5378 71.8132 74.5378 91.8121C74.5378 111.811 90.7501 128.023 110.749 128.023Z"
        fill="#F1F1F1" />
    <path
        d="M198.985 189.871C179.332 212.233 151.673 225.97 121.979 228.116C92.2859 230.262 62.9393 220.645 40.275 201.341L50.0049 174.191C52.2038 169.368 55.6737 165.236 60.0427 162.236C64.4116 159.235 69.5148 157.481 74.805 157.161L80.995 156.781L95.7549 144.051C95.7549 144.051 135.525 142.631 134.935 141.951L159.025 156.441L159.005 156.341L168.475 156.921C173.766 157.24 178.869 158.993 183.238 161.994C187.608 164.994 191.077 169.128 193.275 173.951L198.985 189.871Z"
        fill="#2F2E41" />
    <path
        d="M148.94 69.3546C145.88 58.4023 138.928 48.9433 129.388 42.7533C121.786 37.8908 112.299 35.4083 103.687 37.9798C95.0738 40.5513 87.9431 49.0036 88.5069 58.136C85.3981 57.078 81.8637 58.4855 79.588 60.8902C77.3123 63.295 76.0886 66.5298 75.2122 69.7498C72.4484 79.9888 72.6315 90.8001 75.7405 100.94L75.5695 102.395C79.7714 101.7 82.9586 98.0945 84.9405 94.2533C86.9224 90.4121 88.0629 86.1507 90.2109 82.4034C92.359 78.6562 95.9261 75.3135 100.181 75.1966L99.8064 81.7011C103.467 79.8149 107.129 77.9287 110.79 76.0424C109.919 78.1256 109.048 80.2087 108.177 82.2918C111.374 80.9555 114.572 79.6191 117.769 78.2828C117.412 80.286 117.054 82.2891 116.697 84.2921C119.868 77.0748 129.674 73.9043 136.344 77.9395C140.219 80.2831 142.76 84.4596 144.097 88.8456C145.434 93.2317 145.699 97.8714 145.954 102.457C150.894 92.1402 151.954 80.3891 148.94 69.3546V69.3546Z"
        fill="#2F2E41" />
</svg>