<svg width="495" height="495" viewBox="0 0 495 495" fill="none" xmlns="http://www.w3.org/2000/svg">
<rect width="495" height="495" fill="#E5E5E5"/>
<circle cx="247.5" cy="247.5" r="247.5" fill="white"/>
<g clip-path="url(#clip0_0_1)">
<path d="M112.724 127.164C114.281 122.226 106.769 118.158 102.571 121.188C98.3725 124.217 98.3129 130.81 101.041 135.21C103.769 139.61 108.461 142.338 112.966 144.89C118.804 148.199 127.36 142.94 127.046 136.236C126.731 129.533 117.719 125.099 112.724 127.164Z" fill="#4C1D95"/>
<path d="M144.217 139.687C139.729 143.139 136.436 147.91 134.799 153.33C133.162 158.749 133.265 164.546 135.092 169.904C136.919 175.263 140.379 179.915 144.985 183.206C149.592 186.497 155.114 188.262 160.776 188.254C174.439 188.233 187.413 198.655 190.337 212.002C196.994 242.381 221.81 268.031 251.953 275.687C282.095 283.342 316.143 272.642 336.489 249.121C322.613 254.562 308.267 260.089 293.368 259.676C278.47 259.263 262.731 251.357 257.775 237.301C248.009 209.603 220.378 189.178 191.034 187.966C167.777 187.006 147.363 165.336 144.217 139.687Z" fill="#4C1D95"/>
<path d="M446.737 264.568C446.362 262.68 446.014 260.787 445.651 258.896C444.172 250.981 442.212 243.169 440.44 235.317C435.922 214.881 430.793 194.554 427.417 173.886C426.734 169.788 426.27 165.655 426.028 161.507C425.726 159.1 425.783 156.417 424.099 154.497C423.359 153.734 422.366 153.266 421.307 153.182C420.247 153.098 419.193 153.404 418.342 154.041C416.459 155.529 415.525 157.903 414.12 159.805C412.709 161.923 411.218 163.988 409.632 165.978C399.354 178.369 387.719 182.894 371.488 185.679C355.585 188.339 342.25 185.48 324.301 179.294C310.111 174.434 296.327 168.474 282.232 163.362C273.099 160.508 263.593 159.027 254.025 158.968C247.543 158.931 241.068 159.384 234.655 160.323C227.657 161.275 220.497 163.179 215.176 168.07C213.963 169.118 212.82 170.245 211.755 171.443C211.094 165.039 209.826 158.614 206.232 153.223C199.926 144.239 191.911 136.585 182.646 130.699C176.858 127.229 170.706 124.405 164.302 122.275C153.87 118.543 141.124 118.327 131.86 124.764C123.436 122.287 115.022 119.785 106.724 116.901C101.439 115.019 96.0441 113.457 90.5703 112.224C88.6503 111.685 86.6686 111.398 84.6747 111.369C83.0701 111.34 81.5175 111.938 80.3466 113.036C79.1758 114.133 78.4789 115.644 78.4039 117.247C78.5145 120.877 80.5685 123.992 82.6846 126.799C84.8697 129.839 87.3161 132.682 89.996 135.296C99.4213 144.488 109.962 152.439 120.45 160.37C121.72 166.93 124.254 173.181 127.91 178.775C131.879 184.744 137.179 189.626 142.633 194.214C148.794 199.424 155.183 204.36 161.603 209.247C162.523 219.238 164.191 229.39 169.344 238.076C173.431 244.434 178.883 249.736 184.329 254.921C192.294 262.42 201.034 269.05 210.401 274.701C209.571 280.875 209.032 285.659 206.919 292.354C203.549 303.285 197.931 314.059 195.967 327.239C194.985 332.547 194.905 337.983 195.73 343.318C192.59 346.206 189.685 349.339 187.042 352.688C182.289 358.541 177.841 364.637 173.531 370.82C180.312 365.39 186.845 359.664 193.42 353.991C194.958 352.727 196.287 351.606 197.508 350.609C201.246 361.674 209.431 370.777 221.913 374.104C226.258 375.293 230.714 376.03 235.211 376.303C235.796 376.342 236.383 376.374 236.969 376.403C236.621 376.29 236.274 376.176 235.927 376.061C229.164 373.739 224.07 371.751 218.133 367.76C210.771 362.49 206.6 355.602 204.125 346.097C205.473 345.442 206.882 344.921 208.332 344.542C212.782 343.454 212.845 343.303 217.5 343.757C217.641 343.781 217.798 343.809 217.962 343.838C223.05 345.03 227.993 346.777 232.7 349.048C237.638 351.454 242.963 354.21 247.004 357.628C247.476 358.022 247.944 358.421 248.407 358.825C247.516 357.415 246.547 356.056 245.504 354.755C243.28 352.115 240.795 349.707 238.087 347.568C234.384 344.469 230.331 341.815 226.01 339.659C222.762 337.945 219.236 336.816 215.595 336.325C212.374 336.015 209.122 336.365 206.041 337.355C204.951 337.707 203.862 338.084 202.807 338.535C202.73 335.171 202.938 331.807 203.428 328.479C204.893 319.153 211.191 301.685 211.739 289.605C211.956 284.804 211.798 279.993 211.265 275.217C212.468 275.933 213.677 276.639 214.9 277.322C220.992 280.632 227.353 283.429 233.721 286.162C240.066 288.776 246.55 291.21 253.334 292.391C262.373 293.776 271.539 294.154 280.662 293.52C280.297 302.415 280.281 311.403 282.525 320.06C283.519 323.401 284.726 326.674 286.141 329.86C285.468 330.579 284.834 331.334 284.242 332.121C279.659 338.041 278.48 345.689 276.524 352.733C273.976 363.136 271.733 373.614 269.668 384.122C274.606 374.012 279.014 363.651 282.874 353.082C285.583 346.165 286.301 342.012 289.694 337.18C291.828 341.225 294.163 345.169 296.544 349.046C297.4 350.402 298.266 351.752 299.143 353.095C298.658 351.059 298.129 349.034 297.586 347.013C296.606 343.157 295.487 339.344 294.302 335.55C294.611 335.672 294.912 335.796 295.114 335.88C295.279 335.958 295.445 336.037 295.61 336.116C305.423 341.038 314.462 347.355 324.336 352.176C325.117 352.596 325.898 353.017 326.679 353.438C325.836 352.635 324.991 351.835 324.133 351.049C317.86 345.607 311.842 339.855 305.301 334.729C301.216 331.732 296.919 328.217 291.744 327.625C290.36 323.443 288.95 319.27 287.6 315.078C285.457 307.939 283.923 300.637 282.034 293.428C287.507 293.033 292.96 292.345 298.355 291.429C305.596 290.152 312.906 288.985 319.889 286.62C336.273 281.124 351.021 271.466 363.298 259.372C367.005 255.776 370.468 251.937 373.664 247.879C376.972 243.799 379.936 240.021 384.013 239.151C384.123 239.157 384.255 239.165 384.43 239.182C384.478 239.186 384.526 239.196 384.575 239.201C386.45 239.601 388.266 240.24 389.979 241.102C397.264 244.591 404.614 248.021 411.402 252.426C421.081 258.742 429.799 266.635 440.218 271.757C440.909 272.085 441.663 272.258 442.429 272.263C443.194 272.268 443.951 272.105 444.646 271.785C445.217 271.506 445.721 271.109 446.125 270.619C446.529 270.128 446.823 269.557 446.988 268.944C447.216 267.484 447.13 265.992 446.737 264.568V264.568ZM128.519 127.528C124.73 131.237 122.649 136.302 121.137 141.297C119.965 145.734 119.486 150.325 119.718 154.908C113.64 148.073 107.243 141.519 100.741 135.093C96.51 130.97 92.1659 126.904 88.691 122.102C87.7093 120.647 87.1552 119.905 86.7952 119.262C92.685 120.369 105.361 123.638 113.297 124.829C118.684 125.717 124.119 126.293 129.573 126.552C129.215 126.866 128.862 127.189 128.519 127.528ZM415.833 246.166C408.894 241.598 401.338 238.087 393.86 234.51C390.228 232.822 386.241 230.931 382.136 231.681C378.076 232.847 374.443 235.168 371.678 238.361C369.872 240.384 368.207 242.526 366.498 244.63C361.232 250.895 355.396 256.658 349.066 261.845C341.021 268.756 327.146 276.29 317.537 279.343C308.474 282.204 299.012 283.632 289.63 285.015C281.033 286.394 261.687 286.654 252.94 284.524C244.132 282.506 235.399 278.668 229.737 276.108C210.075 267.195 196.034 256.575 182.014 241.777C176.976 236.231 175.117 233.818 171.902 226.552C169.069 220.203 166.078 209.497 163.578 200.321C162.691 196.9 161.849 193.468 161.008 190.036C160.889 194.712 160.867 199.398 161.174 204.069C161.29 205.606 161.416 207.152 161.552 208.707C156.122 201.702 150.385 194.944 144.594 188.236C136.661 179.153 131.193 171.655 128.377 160.922C125.94 152.093 127.845 142.559 131.593 135.521C133.994 131.623 137.752 128.751 142.143 127.457C150.63 125.076 157.778 126.567 167.716 130.596C177.161 134.17 186.785 140.882 194.754 150.022C197.45 152.969 199.683 156.308 201.377 159.926C201.515 160.207 201.639 160.493 201.759 160.782C202.966 164.258 203.779 167.859 204.181 171.516C204.289 172.521 204.382 173.526 204.459 174.534C204.583 176.178 204.67 177.826 204.706 179.475C204.647 180.284 204.839 181.092 205.255 181.789C205.671 182.486 206.291 183.038 207.032 183.37C211.488 185.166 214.247 179.498 217.003 176.971C222.11 171.776 223.315 170.91 229.22 169.191C243.531 165.923 258.376 165.751 272.76 168.687C280.081 170.282 286.952 173.329 293.926 175.987C306.571 180.902 319.163 186.036 332.2 189.839C341.163 192.515 350.462 194.425 359.851 194.313C374.144 193.994 388.659 190.858 401.094 183.62C408.291 179.324 413.923 173.221 418.776 166.518C418.802 166.777 418.829 167.046 418.861 167.331C421.147 187.071 426.181 206.369 430.407 225.754C432.881 237.036 435.732 248.237 437.98 259.567C438.128 260.379 438.285 261.19 438.444 262C430.626 257.138 423.487 251.274 415.833 246.166Z" fill="black"/>
<path d="M341.588 199.186C334.365 200.271 327.331 202.449 320.179 203.935C310.684 206.025 301.123 207.807 291.584 209.682C285.886 210.846 280.095 211.653 274.474 213.151C273.977 213.312 273.522 213.487 273.086 213.668C272.598 211.319 272.081 208.985 271.53 206.688C271.529 209.283 271.494 211.877 271.448 214.471C267.669 216.695 266.965 220.141 267.614 225.325C268.094 230.14 268.564 234.957 269.085 239.768C269.363 242.337 269.662 244.907 270.148 247.447C270.253 247.986 270.349 248.539 270.477 249.08C270.416 249.098 270.355 249.116 270.294 249.134C270.359 249.133 270.423 249.131 270.488 249.131C270.67 250.086 271.099 250.978 271.734 251.715C272.269 252.257 272.958 252.622 273.706 252.762C274.455 252.902 275.228 252.811 275.924 252.5C276.619 252.19 277.204 251.674 277.599 251.023C277.994 250.372 278.181 249.616 278.136 248.856C278.13 248.787 278.124 248.715 278.118 248.646C281.954 248.206 285.755 247.496 289.491 246.521C298.039 243.825 306.223 240.086 313.858 235.388C320.976 230.84 327.62 225.587 333.687 219.71C337.756 215.531 342.085 211.429 345.22 206.483C347.103 203.274 345.597 199.274 341.588 199.186ZM295.887 237.99C290.242 241.523 284.228 244.429 277.953 246.657C277.379 240.111 276.457 232.669 275.2 225.039C275.118 223.75 275.079 222.46 275.101 221.169C275.437 220.976 275.894 220.761 276.229 220.609C280.278 219.402 284.509 218.849 288.645 217.997C299.172 215.991 309.701 213.975 320.187 211.76C324.75 210.791 329.276 209.652 333.818 208.584C321.934 221.501 310.658 228.91 295.887 237.99Z" fill="black"/>
<path d="M374.435 206.048C379.222 206.144 384.006 205.777 388.722 204.952C393.227 203.955 397.631 202.547 401.878 200.745C392.451 200.466 383.079 202.277 374.435 206.048V206.048Z" fill="black"/>
<path d="M376.534 219.949C382.311 220.941 388.227 220.792 393.948 219.511C388.213 218.057 382.188 218.209 376.534 219.949V219.949Z" fill="black"/>
<path d="M393.066 223.94C398.952 224.71 404.935 224.164 410.584 222.343C404.704 221.38 398.675 221.93 393.066 223.94V223.94Z" fill="black"/>
<path d="M157.313 160.391C161.021 161.485 164.914 159.365 166.008 155.657C167.101 151.949 164.982 148.057 161.274 146.963C157.566 145.869 153.673 147.989 152.579 151.697C151.486 155.405 153.605 159.297 157.313 160.391Z" fill="black"/>
</g>
<defs>
<clipPath id="clip0_0_1">
<rect width="396.646" height="278.933" fill="white" transform="translate(95.927 57.1175) rotate(16.4335)"/>
</clipPath>
</defs>
</svg>
